<svg width="180" height="40" viewBox="0 0 180 40" fill="none" xmlns="http://www.w3.org/2000/svg">
  <path d="M22.4484 15.5485L23.2862 8.97829H2.44551L3.28637 15.5485H22.4484Z" fill="white"/>
  <path d="M5.17004 30.2801L6.08325 37.4079C6.20983 38.3964 7.05068 39.1378 8.04826 39.1378H17.6866C18.6841 39.1378 19.525 38.3964 19.6516 37.4079L20.5889 30.0692L5.17004 30.2801Z" fill="white"/>
  <path d="M4.92595 30.3615C4.17851 30.3615 3.69328 29.6985 3.62396 29.0565L2.09293 16.6365C2.07484 16.2718 2.17731 15.9342 2.37623 15.657L2.39733 15.6329C2.61432 15.3887 2.92777 15.2501 3.25327 15.2471H22.4183C23.003 15.2652 23.5003 15.7172 23.6148 16.317C23.6449 16.4767 23.654 16.6425 23.6419 16.8052L22.1229 29.1289C22.0506 29.4724 21.9029 29.7708 21.695 30.021L21.6679 30.0511C21.4328 30.2651 21.1284 30.3796 20.8089 30.3615H4.98925C4.96514 30.3615 4.94403 30.3615 4.92595 30.3615ZM2.85544 16.0216C2.74091 16.1844 2.68366 16.3863 2.6927 16.5852L4.22072 28.9842C4.26291 29.373 4.54922 29.7708 4.96815 29.7557H20.815C20.9747 29.7588 21.1284 29.7105 21.2429 29.6141C21.3815 29.4423 21.478 29.2404 21.5262 29.0264L23.0392 16.742C23.0452 16.6455 23.0392 16.534 23.0211 16.4255C22.9578 16.1 22.7016 15.8559 22.4063 15.8468H3.25327C3.10258 15.8498 2.95791 15.9131 2.85544 16.0216Z" fill="white"/>
  <path d="M9.24454 25.7955C7.25238 22.429 12.0715 16.8233 15.5133 18.8184C15.652 18.8998 15.6459 19.1078 15.5013 19.1771C14.4434 19.6834 13.3253 20.3254 12.825 21.4254C12.3337 22.3838 12.2644 23.5622 11.6014 24.4242C11.0589 24.9998 10.2512 25.4549 9.54592 25.8678C9.44044 25.9281 9.30481 25.898 9.24454 25.7955Z" fill="white"/>
  <path d="M15.7152 25.0059C14.2143 26.8986 11.7701 27.9535 9.95576 26.5912C9.80808 26.4797 9.85933 26.2446 10.0371 26.2024C10.878 25.9914 11.7158 25.675 12.3638 25.0933C13.4247 24.0686 13.3855 22.402 14.2234 21.2627C14.7749 20.663 15.45 20.0963 16.0618 19.5539C16.1492 19.4785 16.2848 19.4876 16.3542 19.581C17.3337 20.9402 17.1167 23.1916 15.7152 25.0059Z" fill="white"/>
  <path d="M21.5592 4.23159H20.0161C19.2295 4.22255 19.2144 3.10743 19.986 3.0803H21.6044C22.0987 3.0803 22.4242 2.56192 22.2042 2.11888C21.8485 1.40159 21.4145 0.783752 20.9836 0.783752H4.69975C4.22356 0.783752 3.78354 1.40159 3.43393 2.12492C3.21995 2.56795 3.54544 3.0803 4.0367 3.0803H13.2862C14.0608 3.10743 14.0397 4.22255 13.2561 4.23159C13.2561 4.23159 3.8197 4.22858 1.64069 4.22858C1.36944 4.22858 1.12834 4.39132 1.02889 4.64147L0.040337 7.07968C-0.104328 7.43833 0.15789 7.82711 0.543662 7.82711H25.1999C25.5857 7.82711 25.8509 7.43531 25.7033 7.07666L24.7117 4.64449C24.6092 4.39434 24.3651 4.22858 24.0938 4.22858H21.5592V4.23159Z" fill="white"/>
  <path d="M33.5482 6.61849H49.4583C49.8561 6.61849 50.1756 6.94097 50.1756 7.33578V9.31588C50.1756 9.71371 49.8531 10.0332 49.4583 10.0332H36.4747V18.041H48.5089C48.9068 18.041 49.2262 18.3635 49.2262 18.7583V20.7384C49.2262 21.1362 48.9037 21.4556 48.5089 21.4556H36.4747V30.0722H50.1425C50.5403 30.0722 50.8597 30.3947 50.8597 30.7895V32.7696C50.8597 33.1675 50.5373 33.4869 50.1425 33.4869H33.5452C33.1504 33.4869 32.8309 33.1675 32.8309 32.7726V7.33277C32.8309 6.93795 33.1534 6.61849 33.5482 6.61849Z" fill="white"/>
  <path d="M65.4526 19.5539C65.1693 19.7679 64.7805 19.7287 64.5274 19.4846C64.22 19.1862 63.8704 18.924 63.4786 18.698C62.8969 18.3634 62.1856 18.1976 61.3478 18.1976C60.5551 18.1976 59.871 18.3634 59.2893 18.698C58.7076 19.0325 58.4183 19.5207 58.4183 20.1627C58.4183 20.6811 58.5841 21.103 58.9186 21.4225C59.2531 21.7449 59.6479 22.0041 60.106 22.2C60.5642 22.399 61.0524 22.5466 61.5708 22.6461C62.0892 22.7455 62.5352 22.8329 62.9059 22.9053C63.6232 23.0801 64.2953 23.288 64.9282 23.5352C65.5581 23.7823 66.1006 24.1048 66.5587 24.4996C67.0168 24.8944 67.3754 25.3766 67.6346 25.9462C67.8938 26.5159 68.0234 27.206 68.0234 28.0228C68.0234 29.0113 67.8125 29.8582 67.3935 30.5635C66.9716 31.2687 66.4291 31.8443 65.763 32.2874C65.094 32.7334 64.3345 33.0529 63.4816 33.2518C62.6287 33.4507 61.7697 33.5502 60.9047 33.5502C59.446 33.5502 58.1651 33.3272 57.0681 32.8811C56.1489 32.5104 55.3141 31.8805 54.5576 30.9914C54.3044 30.6931 54.3496 30.244 54.651 29.9969L56.167 28.7491C56.4322 28.5321 56.818 28.5351 57.0741 28.7642C57.5021 29.1439 57.9632 29.4905 58.4605 29.804C59.1266 30.2259 59.9433 30.4339 60.9077 30.4339C61.3267 30.4339 61.7546 30.3917 62.1886 30.3043C62.6196 30.2169 63.0054 30.0812 63.3369 29.8974C63.6715 29.7136 63.9427 29.4785 64.1537 29.1922C64.3646 28.9089 64.4701 28.5804 64.4701 28.2097C64.4701 27.7154 64.3164 27.3085 64.006 26.986C63.6956 26.6635 63.3248 26.4104 62.8939 26.2265C62.4599 26.0427 62.0048 25.892 61.5226 25.7805C61.0404 25.669 60.6124 25.5756 60.2417 25.5032C59.5244 25.3314 58.8463 25.1325 58.2013 24.9095C57.5594 24.6865 56.9897 24.3911 56.4955 24.0204C56.0012 23.6497 55.6064 23.1795 55.308 22.6099C55.0127 22.0403 54.862 21.3381 54.862 20.4972C54.862 19.581 55.0518 18.7853 55.4376 18.1042C55.8204 17.4231 56.3267 16.8625 56.9596 16.4165C57.5895 15.9704 58.3068 15.6389 59.1115 15.4159C59.9162 15.1928 60.7239 15.0813 61.5406 15.0813C62.7281 15.0813 63.8643 15.3044 64.9523 15.7474C65.8294 16.106 66.5587 16.6576 67.1464 17.402C67.3845 17.7034 67.3152 18.1494 67.0078 18.3815L65.4526 19.5539Z" fill="white"/>
  <path d="M72.3424 15.3706H74.3225C74.7203 15.3706 75.0398 15.6931 75.0398 16.0879V17.9505H75.1151C75.7721 16.9891 76.6763 16.2416 77.8276 15.7112C78.9789 15.1808 80.1603 14.9156 81.3779 14.9156C82.7703 14.9156 84.027 15.1566 85.1542 15.6358C86.2814 16.115 87.2428 16.7871 88.0385 17.6461C88.8371 18.505 89.4489 19.5117 89.8799 20.663C90.3109 21.8142 90.5249 23.0469 90.5249 24.3639C90.5249 25.7051 90.3109 26.9528 89.8799 28.1011C89.4489 29.2524 88.8371 30.253 88.0385 31.0999C87.2398 31.9468 86.2814 32.6129 85.1542 33.0921C84.027 33.5713 82.7703 33.8123 81.3779 33.8123C80.088 33.8123 78.8733 33.5411 77.7341 32.9956C76.5949 32.4531 75.7239 31.7117 75.1151 30.7744H75.0398V38.4989C75.0398 38.8967 74.7173 39.2162 74.3225 39.2162H72.3424C71.9446 39.2162 71.6251 38.8937 71.6251 38.4989V16.0879C71.6221 15.6931 71.9446 15.3706 72.3424 15.3706ZM80.962 18.1042C80.0518 18.1042 79.229 18.2609 78.4936 18.5774C77.7582 18.8938 77.1404 19.3248 76.6341 19.8673C76.1278 20.4128 75.736 21.0698 75.4587 21.8414C75.1784 22.6129 75.0428 23.4538 75.0428 24.367C75.0428 25.2771 75.1814 26.118 75.4587 26.8896C75.736 27.6611 76.1278 28.3211 76.6341 28.8636C77.1404 29.4091 77.7582 29.8371 78.4936 30.1536C79.226 30.47 80.0488 30.6267 80.962 30.6267C81.8722 30.6267 82.6949 30.47 83.4303 30.1536C84.1627 29.8371 84.7835 29.4061 85.2898 28.8636C85.7962 28.3211 86.188 27.6611 86.4653 26.8896C86.7425 26.118 86.8812 25.2771 86.8812 24.367C86.8812 23.4568 86.7425 22.6159 86.4653 21.8414C86.185 21.0698 85.7932 20.4128 85.2898 19.8673C84.7835 19.3218 84.1627 18.8938 83.4303 18.5774C82.6949 18.2609 81.8722 18.1042 80.962 18.1042Z" fill="white"/>
  <path d="M94.8075 15.3769H96.8056C97.2065 15.3769 97.532 15.7024 97.532 16.1032V18.1767H97.6104C97.8394 17.6915 98.1468 17.2515 98.5296 16.8536C98.9123 16.4588 99.3403 16.1183 99.8135 15.838C100.287 15.5577 100.802 15.3347 101.366 15.1689C101.926 15.0031 102.49 14.9187 103.05 14.9187C103.364 14.9187 103.662 14.9429 103.942 14.9911C104.307 15.0544 104.575 15.3708 104.557 15.7385L104.464 17.9959C104.446 18.4419 104.033 18.7584 103.593 18.677C103.59 18.677 103.587 18.677 103.584 18.674C103.303 18.6228 103.02 18.5956 102.74 18.5956C101.052 18.5956 99.7622 19.0688 98.8701 20.0152C97.975 20.9615 97.529 22.4293 97.529 24.4214V32.818C97.529 33.2188 97.2035 33.5443 96.8026 33.5443H94.8045C94.4036 33.5443 94.0781 33.2188 94.0781 32.818V16.1032C94.0842 15.6993 94.4096 15.3769 94.8075 15.3769Z" fill="white"/>
  <path d="M109.907 25.5213C109.907 26.2899 110.073 26.9891 110.407 27.622C110.742 28.2519 111.182 28.7913 111.727 29.2374C112.273 29.6834 112.903 30.03 113.623 30.2772C114.34 30.5243 115.085 30.6479 115.853 30.6479C116.893 30.6479 117.797 30.4068 118.566 29.9215C119.172 29.5418 119.735 29.0656 120.266 28.493C120.513 28.2247 120.92 28.1886 121.209 28.4086L122.625 29.4936C122.951 29.7437 122.999 30.2199 122.722 30.5243C120.904 32.5375 118.466 33.5442 115.407 33.5442C114.021 33.5442 112.764 33.3091 111.637 32.8389C110.51 32.3688 109.557 31.7178 108.777 30.889C107.996 30.0602 107.396 29.0807 106.974 27.9535C106.553 26.8263 106.345 25.6057 106.345 24.2947C106.345 22.9807 106.574 21.76 107.032 20.6329C107.49 19.5057 108.123 18.5262 108.927 17.6974C109.732 16.8686 110.694 16.2176 111.809 15.7474C112.924 15.2772 114.138 15.0422 115.449 15.0422C117.011 15.0422 118.331 15.3164 119.407 15.8589C120.486 16.4044 121.369 17.1157 122.062 17.9957C122.755 18.8758 123.258 19.8673 123.566 20.9674C123.876 22.0705 124.03 23.1916 124.03 24.3309V24.9095C124.03 25.2471 123.759 25.5183 123.421 25.5183H109.907V25.5213ZM120.461 22.848C120.437 22.1036 120.32 21.4225 120.109 20.8046C119.898 20.1868 119.581 19.6473 119.162 19.1892C118.741 18.7311 118.216 18.3725 117.583 18.1133C116.953 17.8541 116.215 17.7245 115.371 17.7245C114.554 17.7245 113.804 17.8782 113.123 18.1886C112.442 18.4991 111.866 18.8999 111.396 19.3972C110.926 19.8945 110.558 20.443 110.299 21.0518C110.04 21.6576 109.91 22.2603 109.91 22.8541H120.461V22.848Z" fill="white"/>
  <path d="M138.313 19.4243C138.026 19.6413 137.635 19.6021 137.378 19.352C137.068 19.0506 136.715 18.7854 136.32 18.5594C135.733 18.2218 135.015 18.053 134.169 18.053C133.37 18.053 132.677 18.2218 132.092 18.5594C131.504 18.8969 131.212 19.3882 131.212 20.0392C131.212 20.5636 131.381 20.9885 131.718 21.311C132.056 21.6365 132.454 21.8987 132.915 22.0976C133.376 22.2995 133.87 22.4472 134.395 22.5467C134.919 22.6461 135.368 22.7335 135.742 22.8089C136.465 22.9837 137.146 23.1947 137.782 23.4448C138.418 23.695 138.967 24.0204 139.428 24.4183C139.889 24.8191 140.251 25.3043 140.513 25.877C140.775 26.4496 140.905 27.1488 140.905 27.9716C140.905 28.9692 140.694 29.8251 140.269 30.5364C139.844 31.2476 139.295 31.8263 138.623 32.2754C137.948 32.7244 137.182 33.0499 136.32 33.2488C135.459 33.4477 134.594 33.5472 133.72 33.5472C132.249 33.5472 130.956 33.3212 129.847 32.8721C128.918 32.4984 128.075 31.8625 127.315 30.9643C127.059 30.663 127.104 30.2109 127.409 29.9607L128.937 28.7009C129.205 28.4809 129.594 28.4839 129.85 28.716C130.281 29.1018 130.748 29.4514 131.248 29.7648C131.92 30.1898 132.746 30.4008 133.72 30.4008C134.144 30.4008 134.572 30.3586 135.009 30.2712C135.446 30.1838 135.832 30.0451 136.17 29.8583C136.507 29.6714 136.782 29.4333 136.993 29.147C137.204 28.8607 137.312 28.5292 137.312 28.1554C137.312 27.6551 137.155 27.2453 136.845 26.9198C136.531 26.5973 136.158 26.3411 135.721 26.1512C135.284 25.9644 134.823 25.8137 134.337 25.7022C133.852 25.5907 133.421 25.4972 133.047 25.4219C132.324 25.2471 131.637 25.0482 130.989 24.8221C130.341 24.5991 129.765 24.2977 129.268 23.924C128.768 23.5503 128.37 23.0771 128.072 22.5015C127.773 21.9288 127.623 21.2176 127.623 20.3677C127.623 19.4454 127.815 18.6407 128.204 17.9536C128.59 17.2664 129.102 16.6998 129.738 16.2508C130.374 15.8017 131.097 15.4641 131.908 15.2411C132.719 15.0181 133.536 14.9036 134.358 14.9036C135.555 14.9036 136.703 15.1296 137.803 15.5757C138.686 15.9373 139.425 16.4949 140.018 17.2453C140.26 17.5497 140.19 17.9988 139.88 18.2339L138.313 19.4243Z" fill="white"/>
  <path d="M155.109 19.5148C154.822 19.7318 154.431 19.6926 154.174 19.4425C153.864 19.1411 153.511 18.8759 153.116 18.6498C152.529 18.3123 151.812 18.1435 150.965 18.1435C150.166 18.1435 149.473 18.3123 148.888 18.6498C148.3 18.9874 148.008 19.4787 148.008 20.1266C148.008 20.651 148.177 21.076 148.514 21.3985C148.852 21.724 149.25 21.9862 149.711 22.1851C150.172 22.387 150.666 22.5347 151.188 22.6342C151.712 22.7336 152.161 22.821 152.535 22.8964C153.258 23.0712 153.939 23.2821 154.575 23.5323C155.211 23.7824 155.76 24.1079 156.221 24.5058C156.682 24.9066 157.044 25.3918 157.306 25.9645C157.568 26.5371 157.698 27.2363 157.698 28.0591C157.698 29.0567 157.487 29.9126 157.062 30.6239C156.637 31.3351 156.088 31.9138 155.416 32.3628C154.741 32.8119 153.975 33.1374 153.114 33.3363C152.252 33.5352 151.387 33.6347 150.513 33.6347C149.042 33.6347 147.749 33.4087 146.64 32.9596C145.711 32.5859 144.868 31.9499 144.108 31.0518C143.852 30.7535 143.897 30.2984 144.202 30.0482L145.73 28.7884C145.998 28.5684 146.387 28.5714 146.643 28.8035C147.074 29.1893 147.541 29.5389 148.041 29.8523C148.713 30.2773 149.539 30.4882 150.51 30.4882C150.934 30.4882 151.362 30.446 151.799 30.3586C152.236 30.2712 152.622 30.1326 152.96 29.9457C153.297 29.7589 153.572 29.5208 153.783 29.2345C153.994 28.9482 154.102 28.6166 154.102 28.2429C154.102 27.7426 153.945 27.3327 153.635 27.0072C153.321 26.6848 152.948 26.4286 152.514 26.2387C152.077 26.0519 151.616 25.9012 151.13 25.7896C150.645 25.6781 150.214 25.5847 149.84 25.5094C149.117 25.3346 148.43 25.1356 147.782 24.9096C147.134 24.6866 146.561 24.3852 146.061 24.0115C145.561 23.6378 145.163 23.1646 144.865 22.5889C144.566 22.0163 144.416 21.3051 144.416 20.4552C144.416 19.5329 144.608 18.7282 144.994 18.0411C145.38 17.3539 145.892 16.7873 146.528 16.3382C147.164 15.8892 147.887 15.5516 148.698 15.3286C149.509 15.1056 150.326 14.991 151.148 14.991C152.345 14.991 153.493 15.2171 154.59 15.6631C155.473 16.0248 156.212 16.5823 156.805 17.3328C157.047 17.6372 156.977 18.0863 156.667 18.3213L155.109 19.5148Z" fill="white"/>
  <path d="M161.257 24.3037C161.257 23.0138 161.498 21.8113 161.983 20.6962C162.465 19.581 163.128 18.6015 163.972 17.7577C164.816 16.9138 165.808 16.2507 166.947 15.7685C168.086 15.2863 169.313 15.0422 170.63 15.0422C171.944 15.0422 173.171 15.2833 174.31 15.7685C175.449 16.2507 176.444 16.9138 177.285 17.7577C178.128 18.6015 178.791 19.581 179.274 20.6962C179.759 21.8113 180 23.0138 180 24.3037C180 25.5936 179.759 26.8022 179.274 27.9294C178.791 29.0566 178.125 30.0361 177.285 30.8679C176.444 31.6997 175.449 32.3537 174.31 32.8389C173.171 33.3211 171.941 33.5653 170.63 33.5653C169.316 33.5653 168.089 33.3242 166.947 32.8389C165.805 32.3537 164.813 31.6997 163.972 30.8679C163.128 30.0361 162.465 29.0566 161.983 27.9294C161.501 26.8022 161.257 25.5936 161.257 24.3037ZM164.828 24.3037C164.828 25.1958 164.964 26.0216 165.238 26.7751C165.509 27.5316 165.895 28.1765 166.389 28.71C166.884 29.2434 167.493 29.6654 168.213 29.9758C168.933 30.2862 169.738 30.4399 170.63 30.4399C171.522 30.4399 172.327 30.2862 173.047 29.9758C173.764 29.6654 174.373 29.2434 174.867 28.71C175.362 28.1765 175.747 27.5316 176.022 26.7751C176.293 26.0186 176.432 25.1928 176.432 24.3037C176.432 23.4116 176.296 22.5858 176.022 21.8294C175.747 21.0729 175.365 20.4279 174.867 19.8975C174.37 19.364 173.764 18.9421 173.047 18.6317C172.327 18.3212 171.522 18.1675 170.63 18.1675C169.738 18.1675 168.93 18.3212 168.213 18.6317C167.493 18.9421 166.887 19.364 166.389 19.8975C165.892 20.4309 165.509 21.0759 165.238 21.8294C164.964 22.5889 164.828 23.4116 164.828 24.3037Z" fill="white"/>
</svg>
